<svg xmlns="http://www.w3.org/2000/svg" width="15" height="15" viewBox="0 0 15 15">
    <defs>
        <style>
            .cls-1{fill:#fff}
        </style>
    </defs>
    <path id="패스_143" d="M14.319 4.35A7.51 7.51 0 0 0 10.152.477a7.647 7.647 0 0 0-5.74.172 7.344 7.344 0 0 0-4.4 6.312.541.541 0 0 0 .059.373.028.028 0 0 0 .029.029v.029a.694.694 0 0 0 .642.373.772.772 0 0 0 .816-.717 5.781 5.781 0 0 1 3.5-4.992 5.966 5.966 0 0 1 7.868 2.926 5.841 5.841 0 0 1-2.972 7.747 6.012 6.012 0 0 1-3.876.344l.088-.143a.429.429 0 0 0-.03-.488.466.466 0 0 0-.408-.229L3.6 12.27a.441.441 0 0 0-.408.258.435.435 0 0 0 0 .459L4.3 14.766a.457.457 0 0 0 .437.23.467.467 0 0 0 .408-.23l.175-.315a6.8 6.8 0 0 0 2.273.315A7.421 7.421 0 0 0 14.494 10a7.069 7.069 0 0 0-.175-5.65z" class="cls-1" data-name="패스 143" transform="rotate(180 7.5 7.5)"/>
</svg>
