<svg xmlns="http://www.w3.org/2000/svg" width="20" height="20" viewBox="0 0 20 20">
    <defs>
        <style>
            .cls-1{fill:#fff}
        </style>
    </defs>
    <g id="detial_icon">
        <g id="그룹_94" data-name="그룹 94">
            <g id="그룹_93" data-name="그룹 93">
                <path id="패스_84" d="M2.122 2.123a7.257 7.257 0 0 1 10.613 9.886l.864.864.881-.881a.515.515 0 0 1 .728 0l4.126 4.126a2.275 2.275 0 0 1-3.217 3.217l-4.126-4.126a.515.515 0 0 1 0-.728l.881-.881-.864-.864A7.257 7.257 0 0 1 2.122 2.123zm14.724 16.485a1.246 1.246 0 0 0 1.762-1.762l-2.3-2.3-1.762 1.762zm-3.031-3.03l1.762-1.762-.732-.732-1.761 1.761zM2.85 11.658a6.224 6.224 0 1 0 0-8.807 6.234 6.234 0 0 0 0 8.807z" class="cls-1" data-name="패스 84" transform="translate(0 -.001)"/>
            </g>
        </g>
        <g id="그룹_96" data-name="그룹 96" transform="translate(2.316 2.316)">
            <g id="그룹_95" data-name="그룹 95">
                <path id="패스_85" d="M199.177 58.543a5.228 5.228 0 1 1-1.531 3.7 5.194 5.194 0 0 1 1.531-3.7zm.757 6.636a4.157 4.157 0 1 0-1.218-2.94 4.13 4.13 0 0 0 1.218 2.94z" class="cls-1" data-name="패스 85" transform="translate(-197.646 -57.012)"/>
            </g>
        </g>
        <g id="그룹_98" data-name="그룹 98" transform="translate(5.133 5.133)">
            <g id="그룹_97" data-name="그룹 97">
                <path id="패스_86" d="M273.953 134.4h1.079v-1.079a.535.535 0 1 1 1.071 0v1.079h1.079a.535.535 0 1 1 0 1.071H276.1v1.079a.535.535 0 1 1-1.071 0v-1.079h-1.079a.535.535 0 0 1 0-1.071z" class="cls-1" data-name="패스 86" transform="translate(-273.418 -132.784)"/>
            </g>
        </g>
    </g>
</svg>
