<svg xmlns="http://www.w3.org/2000/svg" width="82" height="82" viewBox="0 0 82 82">
    <defs>
        <style>
            .cls-1,.cls-6{fill:#fff}.cls-2{fill:none;stroke:#fff;stroke-width:2px}.cls-3{opacity:.12}.cls-4{fill:url(#linear-gradient)}.cls-5{fill:url(#linear-gradient-2)}.cls-6{font-size:14px;font-family:NotoSansCJKkr-Medium,Noto Sans CJK KR;font-weight:500}.cls-7{clip-path:url(#clip-path)}
        </style>
        <linearGradient id="linear-gradient" x1=".5" x2=".5" y1="1" gradientUnits="objectBoundingBox">
            <stop offset="0"/>
            <stop offset=".14" stop-opacity=".631"/>
            <stop offset="1" stop-opacity="0"/>
        </linearGradient>
        <linearGradient id="linear-gradient-2" x1=".5" x2=".5" y1="1" gradientUnits="objectBoundingBox">
            <stop offset="0" stop-color="#fff" stop-opacity="0"/>
            <stop offset=".23" stop-color="#fff" stop-opacity=".012"/>
            <stop offset=".36" stop-color="#fff" stop-opacity=".039"/>
            <stop offset=".47" stop-color="#fff" stop-opacity=".102"/>
            <stop offset=".57" stop-color="#fff" stop-opacity=".18"/>
            <stop offset=".67" stop-color="#fff" stop-opacity=".278"/>
            <stop offset=".75" stop-color="#fff" stop-opacity=".412"/>
            <stop offset=".83" stop-color="#fff" stop-opacity=".561"/>
            <stop offset=".91" stop-color="#fff" stop-opacity=".741"/>
            <stop offset=".98" stop-color="#fff" stop-opacity=".929"/>
            <stop offset="1" stop-color="#fff"/>
        </linearGradient>
        <clipPath id="clip-path">
            <path id="사각형_78" d="M0 0h40v40H0z" class="cls-1" data-name="사각형 78" transform="translate(978 126)"/>
        </clipPath>
    </defs>
    <g id="홈" transform="translate(-951 -67)">
        <g id="Round_Button_Flat" data-name="Round Button Flat" transform="translate(735 -452)">
            <text id="홈-2" class="cls-6" data-name="홈" transform="translate(252 589)">
                <tspan x="0" y="0">홈</tspan>
            </text>
        </g>
        <g id="마스크_그룹_2" class="cls-7" data-name="마스크 그룹 2" transform="translate(-6 -48)">
            <g id="home-page_2_" data-name="home-page (2)" transform="translate(978 130.28)">
                <path id="패스_119" d="M8.158 41.308A.831.831 0 0 0 9 42.2c1.087 0 10.083-.012 10.083-.012l.015-8.262s-.142-1.362 1.18-1.362h4.184a1.3 1.3 0 0 1 1.467 1.362l-.018 8.235h9.87a1.034 1.034 0 0 0 1.058-1.113V25.819L22.925 13.446 8.158 25.819z" class="cls-1" data-name="패스 119" transform="translate(-2.719 -6.762)"/>
                <path id="패스_120" d="M0 21.325s1.254 2.311 3.988 0L20.329 7.5l15.32 13.739c3.165 2.283 4.351 0 4.351 0L20.329 3.42z" class="cls-1" data-name="패스 120" transform="translate(0 -3.42)"/>
                <path id="패스_121" d="M50.946 9.493h-3.941l.016 4.779 3.925 3.328z" class="cls-1" data-name="패스 121" transform="translate(-15.668 -5.444)"/>
            </g>
        </g>
    </g>
</svg>
