<svg xmlns="http://www.w3.org/2000/svg" id="icn_musicplay" width="24" height="24" viewBox="0 0 24 24">
    <defs>
        <style>
            .cls-1{fill:none}.cls-2{fill:#fff}
        </style>
    </defs>
    <path id="패스_68" d="M0 0h24v24H0z" class="cls-1" data-name="패스 68"/>
    <path id="패스_69" d="M21.543 6.5A31.058 31.058 0 0 1 22 12a31.058 31.058 0 0 1-.457 5.5 2.811 2.811 0 0 1-1.943 2.024C17.9 20 12 20 12 20s-5.893 0-7.605-.476A2.811 2.811 0 0 1 2.457 17.5 31.058 31.058 0 0 1 2 12a31.058 31.058 0 0 1 .457-5.5 2.811 2.811 0 0 1 1.938-2.024C6.107 4 12 4 12 4s5.9 0 7.6.476A2.811 2.811 0 0 1 21.543 6.5zM10 15.5l6-3.5-6-3.5z" class="cls-2" data-name="패스 69"/>
</svg>
