<svg xmlns="http://www.w3.org/2000/svg" id="icon_overview" width="24" height="24" viewBox="0 0 24 24">
    <defs>
        <style>
            .cls-1{fill:none}.cls-2{fill:#fff}
        </style>
    </defs>
    <path id="blankbox" d="M0 0h24v24H0z" class="cls-1"/>
    <path id="패스_53" d="M2 3.993A1 1 0 0 1 2.992 3h18.016a.993.993 0 0 1 .992.993v16.014a1 1 0 0 1-.992.993H2.992A.993.993 0 0 1 2 20.007zM4 5v14h16V5zm2 2h6v6H6zm2 2v2h2V9zm-2 6h12v2H6zm8-8h4v2h-4zm0 4h4v2h-4z" class="cls-2" data-name="패스 53"/>
</svg>
