<svg xmlns="http://www.w3.org/2000/svg" id="icon_picture" width="24" height="24" viewBox="0 0 24 24">
    <defs>
        <style>
            .cls-1{fill:none}.cls-2{fill:#fff}
        </style>
    </defs>
    <g id="그룹_119" data-name="그룹 119" transform="rotate(0 12 12)">
        <path id="패스_47" d="M0 0h24v24H0z" class="cls-1" data-name="패스 47"/>
        <path id="패스_48" d="M20 5H4v14l9.292-9.294a1 1 0 0 1 1.414 0L20 15.01zM2 3.993A1 1 0 0 1 2.992 3h18.016a.993.993 0 0 1 .992.993v16.014a1 1 0 0 1-.992.993H2.992A.993.993 0 0 1 2 20.007zM8 11a2 2 0 1 1 2-2 2 2 0 0 1-2 2z" class="cls-2" data-name="패스 48"/>
    </g>
</svg>
