<svg xmlns="http://www.w3.org/2000/svg" id="icon_point" width="24" height="24" viewBox="0 0 24 24">
    <defs>
        <style>
            .cls-1{fill:none}.cls-2{fill:#fff}
        </style>
    </defs>
    <path id="blankbox" d="M0 0h24v24H0z" class="cls-1"/>
    <path id="패스_56" d="M12 20a8 8 0 1 0-8-8 8 8 0 0 0 8 8zm0 2a10 10 0 1 1 10-10 10 10 0 0 1-10 10zm0-6a4 4 0 1 0-4-4 4 4 0 0 0 4 4zm0 2a6 6 0 1 1 6-6 6 6 0 0 1-6 6zm0-4a2 2 0 1 1 2-2 2 2 0 0 1-2 2z" class="cls-2" data-name="패스 56"/>
</svg>
