<svg id="Layer_1" data-name="Layer 1" xmlns="http://www.w3.org/2000/svg" viewBox="0 0 206.76 29.93"><defs><style>.cls-1{fill:#fff;}.cls-2{fill:#00b1c9;}.cls-3{fill:#4f4ca0;}.cls-4{fill:#f05123;}</style></defs><title>Untitled-1</title><path class="cls-1" d="M284.6,363.25v-1.67h-2.73v-4.07l-2,1.16v2.91h-2v1.67h2v6a2.94,2.94,0,0,0,3.28,3.18,2.79,2.79,0,0,0,1.38-.4v-1.77a3,3,0,0,1-1.23.33c-1,0-1.41-.61-1.41-1.58v-5.73Z" transform="translate(-109.33 -349.78)"/><polygon class="cls-1" points="151.98 20.62 151.98 7.74 149.85 8.96 149.85 22.55 157.61 22.55 157.61 20.62 151.98 20.62"/><path class="cls-1" d="M292.12,364.08l1.61-.93a4.49,4.49,0,0,0-3.73-1.56c-2.51,0-3.81,1.65-3.75,3,.08,1.65,1.15,2.42,3.43,3.24,1.61.59,2.25,1,2.25,1.6s-.93,1.13-2.07,1.13a3.45,3.45,0,0,1-2.35-.85l-1.72,1a5.26,5.26,0,0,0,4.07,1.7c2.74,0,4.15-1.55,4-3.06s-1-2.23-2.95-2.95-2.82-1.2-2.82-1.95.7-1.25,1.87-1.25A3,3,0,0,1,292.12,364.08Z" transform="translate(-109.33 -349.78)"/><path class="cls-1" d="M277.64,367c0-3.1-1.6-5.45-4.9-5.45a5.43,5.43,0,0,0,0,10.86,5.54,5.54,0,0,0,4.43-2.13l-1.6-.93a4.13,4.13,0,0,1-2.83,1.22,3.22,3.22,0,0,1-3.39-3h8.23Zm-8.2-.94a3.2,3.2,0,0,1,3.17-2.79,2.84,2.84,0,0,1,2.95,2.79Z" transform="translate(-109.33 -349.78)"/><path class="cls-1" d="M304.83,367c0-3.1-1.61-5.45-4.9-5.45a5.43,5.43,0,0,0,0,10.86,5.52,5.52,0,0,0,4.43-2.13l-1.6-.93A4.13,4.13,0,0,1,300,370.6a3.21,3.21,0,0,1-3.38-3h8.23Zm-8.27-.94a3.21,3.21,0,0,1,3.17-2.79,2.83,2.83,0,0,1,2.95,2.79Z" transform="translate(-109.33 -349.78)"/><path class="cls-1" d="M316.08,367c0-3.1-1.6-5.45-4.89-5.45a5.43,5.43,0,0,0,0,10.86,5.54,5.54,0,0,0,4.43-2.13l-1.6-.93a4.13,4.13,0,0,1-2.83,1.22,3.21,3.21,0,0,1-3.38-3h8.22Zm-8.32-.94a3.2,3.2,0,0,1,3.17-2.79,2.84,2.84,0,0,1,2.95,2.79Z" transform="translate(-109.33 -349.78)"/><path class="cls-2" d="M236.08,355.13a5.28,5.28,0,0,0-.72-2.67,5.36,5.36,0,0,0-10,2.67h0v18.38l10.72-6.19V355.13Z" transform="translate(-109.33 -349.78)"/><path class="cls-1" d="M233.44,353.57a3.14,3.14,0,1,0-1.15,4.29A3.14,3.14,0,0,0,233.44,353.57Z" transform="translate(-109.33 -349.78)"/><path class="cls-3" d="M232.25,353.05a2.16,2.16,0,1,0,1.53,2.65A2.16,2.16,0,0,0,232.25,353.05Z" transform="translate(-109.33 -349.78)"/><path class="cls-4" d="M244.8,362.29a5.28,5.28,0,0,1,2.68-.71,5.35,5.35,0,0,1,2.68,10h0l-14.08,8.12V367.32l8.72-5Z" transform="translate(-109.33 -349.78)"/><path class="cls-1" d="M250.19,368.51a3.14,3.14,0,1,1-1.15-4.29A3.13,3.13,0,0,1,250.19,368.51Z" transform="translate(-109.33 -349.78)"/><path class="cls-3" d="M249,369a2.17,2.17,0,1,1,1.53-2.65A2.16,2.16,0,0,1,249,369Z" transform="translate(-109.33 -349.78)"/><polygon class="cls-3" points="126.75 17.55 116.03 23.74 126.75 29.93 126.75 17.55"/><path class="cls-1" d="M109.33,357.3h4.4a8.79,8.79,0,0,1,2.13.24,4.42,4.42,0,0,1,1.63.72,3.24,3.24,0,0,1,1,1.25,4.57,4.57,0,0,1,0,3.67,3.38,3.38,0,0,1-1.1,1.27,5.18,5.18,0,0,1-1.67.72,8.77,8.77,0,0,1-2.1.24h-2.28v6.34h-2Zm2,6.39h2.14a6.47,6.47,0,0,0,1.36-.13,3.56,3.56,0,0,0,1.07-.41,1.86,1.86,0,0,0,.69-.73,2.48,2.48,0,0,0,0-2.19,2,2,0,0,0-.69-.71,2.73,2.73,0,0,0-1-.39,7,7,0,0,0-1.33-.11h-2.18Z" transform="translate(-109.33 -349.78)"/><path class="cls-1" d="M129.84,366.9a5.18,5.18,0,0,1-.4,2.06,4.87,4.87,0,0,1-2.76,2.68,5.8,5.8,0,0,1-4.13,0,4.73,4.73,0,0,1-1.65-1.06,5,5,0,0,1-1.09-1.62,5.18,5.18,0,0,1-.4-2.06,5.12,5.12,0,0,1,.4-2.06,4.83,4.83,0,0,1,2.74-2.65,5.8,5.8,0,0,1,4.13,0,5,5,0,0,1,1.66,1.05,4.72,4.72,0,0,1,1.1,1.6A5.12,5.12,0,0,1,129.84,366.9Zm-2,0a4.16,4.16,0,0,0-.21-1.33,3.56,3.56,0,0,0-.63-1.11,3,3,0,0,0-1-.76,3.45,3.45,0,0,0-2.77,0,3,3,0,0,0-1,.76,3.56,3.56,0,0,0-.63,1.11,4.29,4.29,0,0,0,0,2.65,3.73,3.73,0,0,0,.63,1.12,3,3,0,0,0,1,.77,3.45,3.45,0,0,0,2.77,0,3,3,0,0,0,1-.77,3.73,3.73,0,0,0,.63-1.12A4.15,4.15,0,0,0,127.84,366.91Z" transform="translate(-109.33 -349.78)"/><path class="cls-1" d="M133.21,362.08l2.18,7.39h.05l2.3-7.39h2l2.35,7.39h0l2.19-7.39h2l-3.21,9.67h-2l-2.39-7.26h0l-2.37,7.26h-2l-3.22-9.67Z" transform="translate(-109.33 -349.78)"/><path class="cls-1" d="M157.32,366.83v.33c0,.11,0,.22,0,.33h-7.7a3,3,0,0,0,.28,1.14,3.19,3.19,0,0,0,.68.94,3.15,3.15,0,0,0,1,.61,3.2,3.2,0,0,0,1.2.23,3.29,3.29,0,0,0,1.69-.43,3.41,3.41,0,0,0,1.12-1l1.35,1.08a4.85,4.85,0,0,1-1.83,1.51,5.4,5.4,0,0,1-2.33.49,5.49,5.49,0,0,1-2.05-.37,4.73,4.73,0,0,1-1.61-1A4.81,4.81,0,0,1,148,369a5.39,5.39,0,0,1-.39-2.08,5.66,5.66,0,0,1,.38-2.08,4.72,4.72,0,0,1,1-1.62,4.84,4.84,0,0,1,1.6-1.05,5.17,5.17,0,0,1,2-.38,5.23,5.23,0,0,1,1.94.35,3.88,3.88,0,0,1,1.47,1,4.59,4.59,0,0,1,.93,1.58A6.24,6.24,0,0,1,157.32,366.83Zm-2-.77a3.69,3.69,0,0,0-.19-1.07,2.38,2.38,0,0,0-.52-.87,2.26,2.26,0,0,0-.83-.58,2.89,2.89,0,0,0-1.18-.22,3,3,0,0,0-1.15.22,2.91,2.91,0,0,0-.94.58,3,3,0,0,0-.65.87,2.8,2.8,0,0,0-.3,1.07Z" transform="translate(-109.33 -349.78)"/><path class="cls-1" d="M160,363.16q0-.62-.06-1.08h1.82q0,.36.06.84c0,.32,0,.59,0,.79h.06a3.39,3.39,0,0,1,1.19-1.38,3.22,3.22,0,0,1,1.77-.52,3.28,3.28,0,0,1,.76.08l-.09,1.78a3.46,3.46,0,0,0-.87-.1,2.67,2.67,0,0,0-1.21.25,2.49,2.49,0,0,0-.85.69,2.89,2.89,0,0,0-.5,1,4.47,4.47,0,0,0-.16,1.17v5.08H160v-7.59C160,363.9,160,363.57,160,363.16Z" transform="translate(-109.33 -349.78)"/><path class="cls-1" d="M176,366.83v.33c0,.11,0,.22,0,.33h-7.7a3,3,0,0,0,.28,1.14,3.19,3.19,0,0,0,.68.94,3.15,3.15,0,0,0,1,.61,3.2,3.2,0,0,0,1.2.23,3.29,3.29,0,0,0,1.69-.43,3.41,3.41,0,0,0,1.12-1l1.35,1.08a4.85,4.85,0,0,1-1.83,1.51,5.4,5.4,0,0,1-2.33.49,5.49,5.49,0,0,1-2.05-.37,4.73,4.73,0,0,1-1.61-1,4.81,4.81,0,0,1-1.06-1.6,5.39,5.39,0,0,1-.39-2.08,5.66,5.66,0,0,1,.38-2.08,4.72,4.72,0,0,1,1-1.62,4.84,4.84,0,0,1,1.6-1.05,5.45,5.45,0,0,1,3.92,0,3.88,3.88,0,0,1,1.47,1,4.59,4.59,0,0,1,.93,1.58A6.24,6.24,0,0,1,176,366.83Zm-2-.77a3.69,3.69,0,0,0-.19-1.07,2.5,2.5,0,0,0-.51-.87,2.38,2.38,0,0,0-.84-.58,2.89,2.89,0,0,0-1.18-.22,3,3,0,0,0-1.15.22,2.91,2.91,0,0,0-.94.58,3,3,0,0,0-.65.87,2.8,2.8,0,0,0-.3,1.07Z" transform="translate(-109.33 -349.78)"/><path class="cls-1" d="M186.41,370.22a3.6,3.6,0,0,1-1.5,1.34,4.47,4.47,0,0,1-2,.46,4.86,4.86,0,0,1-2-.4,4.45,4.45,0,0,1-1.53-1.09,4.8,4.8,0,0,1-1-1.63,5.58,5.58,0,0,1-.35-2,5.5,5.5,0,0,1,.35-2,4.87,4.87,0,0,1,1-1.62,4.56,4.56,0,0,1,1.54-1.08,4.93,4.93,0,0,1,2-.39,4.13,4.13,0,0,1,2.06.5,4.37,4.37,0,0,1,1.39,1.22h0v-7.21h1.92v15.43h-1.86v-1.53ZM180,366.91a4.41,4.41,0,0,0,.2,1.3,3.32,3.32,0,0,0,.62,1.12,3.1,3.1,0,0,0,1,.78,3,3,0,0,0,1.39.3,3.08,3.08,0,0,0,1.33-.29,3.14,3.14,0,0,0,1-.76,3.47,3.47,0,0,0,.67-1.11,3.93,3.93,0,0,0,0-2.65,3.63,3.63,0,0,0-.67-1.12,3.17,3.17,0,0,0-1-.77,3.08,3.08,0,0,0-1.33-.29,3.13,3.13,0,0,0-1.39.29,3,3,0,0,0-1,.77,3.32,3.32,0,0,0-.62,1.12A4.42,4.42,0,0,0,180,366.91Z" transform="translate(-109.33 -349.78)"/><path class="cls-1" d="M198.66,370.22v1.53H196.8V356.32h1.92v7.21h.06a4,4,0,0,1,3.44-1.72,4.84,4.84,0,0,1,2,.39,4.48,4.48,0,0,1,1.52,1.08,4.87,4.87,0,0,1,1,1.62,5.72,5.72,0,0,1,.35,2,5.8,5.8,0,0,1-.35,2,5,5,0,0,1-1,1.63,4.51,4.51,0,0,1-1.52,1.09,4.86,4.86,0,0,1-2,.4,4.35,4.35,0,0,1-2-.46,3.69,3.69,0,0,1-1.51-1.34Zm6.43-3.31a4.13,4.13,0,0,0-.21-1.31,3.3,3.3,0,0,0-.61-1.12,3,3,0,0,0-1-.77,3.24,3.24,0,0,0-1.4-.29,3.05,3.05,0,0,0-1.33.29,3.21,3.21,0,0,0-1,.77,3.81,3.81,0,0,0-.66,1.12,3.93,3.93,0,0,0,0,2.65,3.63,3.63,0,0,0,.66,1.11,3.18,3.18,0,0,0,1,.76,3.05,3.05,0,0,0,1.33.29,3.1,3.1,0,0,0,1.4-.3,3.14,3.14,0,0,0,1-.78,3.3,3.3,0,0,0,.61-1.12A4.11,4.11,0,0,0,205.09,366.91Z" transform="translate(-109.33 -349.78)"/><path class="cls-1" d="M213.42,369.67h0l2.67-7.59h2l-4.69,12a8.53,8.53,0,0,1-.53,1.09,3.42,3.42,0,0,1-.68.82,2.81,2.81,0,0,1-.91.52,3.71,3.71,0,0,1-1.23.18l-.62,0a5.19,5.19,0,0,1-.65-.11l.19-1.69a3.22,3.22,0,0,0,1,.16,1.41,1.41,0,0,0,1.12-.42,4,4,0,0,0,.67-1.19l.62-1.62-4.15-9.67h2.15Z" transform="translate(-109.33 -349.78)"/></svg>
