<svg xmlns="http://www.w3.org/2000/svg" width="22" height="24" viewBox="0 0 22 24">
    <defs>
        <filter id="f1">
            <feOffset result="offOut" in="SourceAlpha" dx="1.5" dy="1.5" />
            <feGaussianBlur result="blurOut" in="offOut" stdDeviation="0" />
            <feBlend in="SourceGraphic" in2="blurOut" mode="normal" />
        </filter>
        <style>
            .cls-1{fill:none}.cls-3{fill:#fff}
        </style>

    </defs>
    <g class="cls-2" transform="translate(-123 -116)">
        <g id="man-user" transform="translate(125.046 116)" filter="url(#f1)">
            <path d="M22.959 10.759c2.618 0 4.74-2.409 4.74-5.38S27 0 22.959 0s-4.74 2.409-4.74 5.38 2.122 5.379 4.74 5.379z" class="cls-3" transform="translate(-14.005)"/>
            <path d="M25.2 38.562c-.088-5.176-.811-6.651-6.347-7.584a3.42 3.42 0 0 1-2.6.928 3.421 3.421 0 0 1-2.6-.928c-5.475.923-6.243 2.376-6.344 7.416-.008.412-.012.433-.014.385v.544s1.318 2.483 8.952 2.483 8.952-2.483 8.952-2.483v-.4a3.114 3.114 0 0 1 .001-.361z" class="cls-3" transform="translate(-7.303 -19.805)"/>
        </g>
    </g>
</svg>
