<svg xmlns="http://www.w3.org/2000/svg" width="52" height="58" viewBox="0 0 52 58">
    <defs>
        <style>
            .cls-1{fill:#fff}
        </style>
    </defs>
    <g id="overview_icon" transform="translate(-28)">
        <path id="패스_128" d="M72.15 0H38.8c-.022 0-.04.011-.062.013a.972.972 0 0 0-.251.048.939.939 0 0 0-.387.222L28.291 9.95a.958.958 0 0 0-.2.283c-.014.03-.021.059-.032.09a.928.928 0 0 0-.051.25c0 .021-.012.04-.012.06v46.4a.974.974 0 0 0 .981.967H72.15a.974.974 0 0 0 .981-.967V35.767h-1.962v20.3h-41.2V11.6H38.8a.974.974 0 0 0 .981-.967v-8.7h31.388v16.434h1.962V.967A.974.974 0 0 0 72.15 0zM37.814 9.667h-6.461L37.814 3.3z" class="cls-1" data-name="패스 128"/>
        <path id="패스_129" d="M103.349 127.848v-6.867a.981.981 0 0 0-.981-.981H69.012a.981.981 0 0 0-.981.981v23.545a.981.981 0 0 0 .981.981H85.69v-1.962h-15.7v-4.472l9.779-8.889 8.168 8.168a.981.981 0 0 0 1.323.06l5.242-4.369.491.429L96.287 133l-1.121-.981A.981.981 0 0 0 93.89 132l-5.2 4.331-8.2-8.2a.981.981 0 0 0-1.354-.032l-9.147 8.316v-14.453h31.394v5.886z" class="cls-1" data-name="패스 129" transform="translate(-35.122 -105.665)"/>
        <path id="패스_130" d="M212.031 155.924a3.924 3.924 0 1 0 3.924-3.924 3.924 3.924 0 0 0-3.924 3.924zm5.886 0a1.962 1.962 0 1 1-1.962-1.962 1.962 1.962 0 0 1 1.962 1.962z" class="cls-1" data-name="패스 130" transform="translate(-161.464 -133.675)"/>
        <path id="패스_131" d="M128.379 237.952l2.944-2.944 1.387 1.388-2.944 2.943z" class="cls-1" data-name="패스 131" transform="translate(-88.07 -206.645)"/>
        <path id="패스_132" d="M124.252 184.057a7.594 7.594 0 0 0 6.828 4.218 7.687 7.687 0 0 0 5.4-2.236l.5-.5a4.422 4.422 0 0 0 1.275-3.408 59.345 59.345 0 0 0 16.862-14.454l8.437-10.544a3.174 3.174 0 0 0-4.462-4.46l-10.542 8.439a59.347 59.347 0 0 0-14.45 16.854 4.422 4.422 0 0 0-3.408 1.275l-2.571 2.571a1.971 1.971 0 0 1-1.387.576h-1.725a.981.981 0 0 0-.878 1.421zm25.522-21.417l10.544-8.437a1.211 1.211 0 0 1 1.7 1.7l-8.437 10.544a57.668 57.668 0 0 1-5.472 5.936l-4.269-4.274a57.717 57.717 0 0 1 5.931-5.472zm-7.26 6.926l4.14 4.14a57.508 57.508 0 0 1-8.847 6.415l-.616-.616c-.073-.086-.132-.181-.214-.262s-.175-.139-.261-.213l-.617-.617a57.494 57.494 0 0 1 6.42-8.848zM129.5 183.2l2.571-2.571a2.551 2.551 0 0 1 3.275-.205l.47.469a2.468 2.468 0 0 1-.222 3.248l-.5.5a5.708 5.708 0 0 1-4.011 1.665 5.642 5.642 0 0 1-4.294-1.962 3.948 3.948 0 0 0 2.72-1.15z" class="cls-1" data-name="패스 132" transform="translate(-84.25 -134.199)"/>
    </g>
</svg>
