<svg xmlns="http://www.w3.org/2000/svg" width="82" height="82" viewBox="0 0 82 82">
    <defs>
        <style>
            .cls-1,.cls-3{fill:none}.cls-1{stroke:#fff;stroke-width:2px}.cls-2{opacity:.12}.cls-4,.cls-5{fill:#fff}.cls-4{font-size:14px;font-family:NotoSansCJKkr-Medium,Noto Sans CJK KR;font-weight:500}
        </style>
    </defs>
    <g id="작품개요" transform="translate(-951 -389)">
        <g id="Round_Button_Flat" data-name="Round Button Flat" transform="translate(735 -130)">
            <text id="작품개요-2" class="cls-4" data-name="작품개요" transform="translate(251 586.692)">
                <tspan x="-25.76" y="0">Overview</tspan>
            </text>
        </g>
        <g id="그룹_154" data-name="그룹 154" transform="translate(948 400.77)">
            <path id="패스_128" d="M57.649 0h-22.4c-.014 0-.027.007-.042.009a.638.638 0 0 0-.169.033.627.627 0 0 0-.254.158L28.2 6.862a.661.661 0 0 0-.132.2c-.009.021-.014.041-.022.062a.655.655 0 0 0-.034.173c0 .015-.008.027-.008.041v32a.663.663 0 0 0 .659.667h28.99a.663.663 0 0 0 .659-.667V24.667H56.99v14H29.32V8h5.929a.663.663 0 0 0 .659-.667v-6H56.99v11.334h1.318v-12A.663.663 0 0 0 57.649 0zM34.591 6.667h-4.339l4.339-4.391z" class="cls-5" data-name="패스 128"/>
            <path id="패스_129" d="M92.159 125.362v-4.692a.67.67 0 0 0-.67-.67H68.7a.67.67 0 0 0-.67.67v16.085a.67.67 0 0 0 .67.67h11.4v-1.34H69.371v-3.055l6.68-6.073 5.58 5.58a.67.67 0 0 0 .9.041l3.581-2.985.335.293.883-1.005-.766-.67a.67.67 0 0 0-.871-.011l-3.552 2.959-5.6-5.6a.67.67 0 0 0-.925-.022l-6.249 5.681v-9.878h21.452v4.021z" class="cls-5" data-name="패스 129" transform="translate(-36.677 -110.041)"/>
            <path id="패스_130" d="M212.031 154.681a2.681 2.681 0 1 0 2.681-2.681 2.681 2.681 0 0 0-2.681 2.681zm4.021 0a1.34 1.34 0 1 1-1.34-1.34 1.34 1.34 0 0 1 1.34 1.34z" class="cls-5" data-name="패스 130" transform="translate(-168.882 -139.344)"/>
            <path id="패스_131" d="M128.379 237.019l2.011-2.011.948.948-2.011 2.011z" class="cls-5" data-name="패스 131" transform="translate(-92.105 -215.432)"/>
            <path id="패스_132" d="M124.18 173.891a5.188 5.188 0 0 0 4.665 2.882 5.251 5.251 0 0 0 3.686-1.527l.345-.345a3.021 3.021 0 0 0 .871-2.328 40.542 40.542 0 0 0 11.52-9.874l5.764-7.2a2.168 2.168 0 0 0-3.048-3.047l-7.2 5.765a40.544 40.544 0 0 0-9.874 11.517 3.021 3.021 0 0 0-2.328.871l-1.757 1.757a1.347 1.347 0 0 1-.947.393H124.7a.67.67 0 0 0-.6.971zm17.436-14.631l7.2-5.764a.827.827 0 0 1 1.163 1.163l-5.764 7.2a39.4 39.4 0 0 1-3.738 4.055L137.564 163a39.427 39.427 0 0 1 4.052-3.738zm-4.96 4.732l2.828 2.828a39.287 39.287 0 0 1-6.044 4.383l-.421-.421c-.05-.059-.09-.123-.146-.179s-.119-.1-.178-.145l-.422-.421a39.277 39.277 0 0 1 4.386-6.045zm-8.891 9.316l1.757-1.757a1.743 1.743 0 0 1 2.237-.14l.321.32a1.686 1.686 0 0 1-.152 2.219l-.344.345a3.9 3.9 0 0 1-2.74 1.137 3.854 3.854 0 0 1-2.934-1.34 2.7 2.7 0 0 0 1.858-.785z" class="cls-5" data-name="패스 132" transform="translate(-88.506 -139.454)"/>
        </g>
    </g>
</svg>
