<svg xmlns="http://www.w3.org/2000/svg" width="82" height="82" viewBox="0 0 82 82">
    <defs>
        <style>
            .cls-1{fill:none;stroke:#fff;stroke-width:2px}.cls-2{opacity:.12}.cls-3{fill:url(#linear-gradient)}.cls-4{fill:url(#linear-gradient-2)}.cls-5,.cls-6{fill:#fff}.cls-5{font-size:14px;font-family:NotoSansCJKkr-Medium,Noto Sans CJK KR;font-weight:500}
        </style>
        <linearGradient id="linear-gradient" x1=".5" x2=".5" y1="1" gradientUnits="objectBoundingBox">
            <stop offset="0"/>
            <stop offset=".14" stop-opacity=".631"/>
            <stop offset="1" stop-opacity="0"/>
        </linearGradient>
        <linearGradient id="linear-gradient-2" x1=".5" x2=".5" y1="1" gradientUnits="objectBoundingBox">
            <stop offset="0" stop-color="#fff" stop-opacity="0"/>
            <stop offset=".23" stop-color="#fff" stop-opacity=".012"/>
            <stop offset=".36" stop-color="#fff" stop-opacity=".039"/>
            <stop offset=".47" stop-color="#fff" stop-opacity=".102"/>
            <stop offset=".57" stop-color="#fff" stop-opacity=".18"/>
            <stop offset=".67" stop-color="#fff" stop-opacity=".278"/>
            <stop offset=".75" stop-color="#fff" stop-opacity=".412"/>
            <stop offset=".83" stop-color="#fff" stop-opacity=".561"/>
            <stop offset=".91" stop-color="#fff" stop-opacity=".741"/>
            <stop offset=".98" stop-color="#fff" stop-opacity=".929"/>
            <stop offset="1" stop-color="#fff"/>
        </linearGradient>
    </defs>
    <g id="감상평" transform="translate(-951.5 -177)">
        <g id="Round_Button_Flat" data-name="Round Button Flat" transform="translate(735 -342)">

            <text id="감상평-2" class="cls-5" data-name="감상평" transform="translate(237 590)">
                <tspan x="0" y="0">감상평</tspan>
            </text>
        </g>
        <g id="그룹_153" data-name="그룹 153" transform="translate(966 195)">
            <g id="그룹_151" data-name="그룹 151">
                <path id="패스_122" d="M48.3 93.543a18.042 18.042 0 0 0-10.991-3.52 19.236 19.236 0 0 0-7.091 1.321 13.377 13.377 0 0 0-5.2-5.242 18.579 18.579 0 0 0-9.322-2.4A18.042 18.042 0 0 0 4.7 87.219 11.13 11.13 0 0 0 0 96.035a10.917 10.917 0 0 0 3.887 8.138l.043 7.351a1.043 1.043 0 0 0 .537.931 1.14 1.14 0 0 0 1.072.01l7.6-4.256a20.127 20.127 0 0 0 2.553.163 19.3 19.3 0 0 0 7.081-1.321 12.58 12.58 0 0 0 3.539 4.125 18.042 18.042 0 0 0 10.991 3.52 20.143 20.143 0 0 0 2.567-.164l7.612 4.024a.967.967 0 0 0 1.06-.029 1.108 1.108 0 0 0 .526-.924l.043-7.1A10.917 10.917 0 0 0 53 102.36a11.131 11.131 0 0 0-4.7-8.817zM15.695 106.2a17.949 17.949 0 0 1-2.63-.194 1.077 1.077 0 0 0-.834.226l-6.148 3.442-.035-5.987v-.066a1.086 1.086 0 0 0-.39-.785 8.91 8.91 0 0 1-3.493-6.8c0-5.606 6.07-10.167 13.531-10.167 5.528 0 10.525 2.59 12.563 6.4a15.578 15.578 0 0 0-1.943 1.273 11.13 11.13 0 0 0-4.7 8.817 9.97 9.97 0 0 0 .366 2.675 17.128 17.128 0 0 1-6.287 1.166zm31.649 2.961a1.087 1.087 0 0 0-.39.785v.059l-.035 5.8-6.168-3.26a1.075 1.075 0 0 0-.815-.21 17.92 17.92 0 0 1-2.63.194c-6.11 0-11.286-3.059-12.961-7.245l-.024-.06a7.826 7.826 0 0 1-.546-2.861c0-3.607 2.514-6.781 6.293-8.586h.008a1.076 1.076 0 0 0 .121-.058 16.887 16.887 0 0 1 7.108-1.52c7.461 0 13.531 4.561 13.531 10.167a8.91 8.91 0 0 1-3.493 6.797z" class="cls-6" data-name="패스 122" transform="translate(0 -83.699)"/>
                <path id="패스_123" d="M290.113 222.2H277.25a1.095 1.095 0 1 0 0 2.19h12.863a1.095 1.095 0 0 0 0-2.19z" class="cls-6" data-name="패스 123" transform="translate(-246.427 -207.178)"/>
                <path id="패스_124" d="M290.113 267.469H277.25a1.095 1.095 0 1 0 0 2.19h12.863a1.095 1.095 0 0 0 0-2.19z" class="cls-6" data-name="패스 124" transform="translate(-246.427 -247.543)"/>
            </g>
            <g id="그룹_152" data-name="그룹 152">
                <path id="패스_125" d="M48.3 93.543a18.042 18.042 0 0 0-10.991-3.52 19.236 19.236 0 0 0-7.091 1.321 13.377 13.377 0 0 0-5.2-5.242 18.579 18.579 0 0 0-9.322-2.4A18.042 18.042 0 0 0 4.7 87.219 11.13 11.13 0 0 0 0 96.035a10.917 10.917 0 0 0 3.887 8.138l.043 7.351a1.043 1.043 0 0 0 .537.931 1.14 1.14 0 0 0 1.072.01l7.6-4.256a20.127 20.127 0 0 0 2.553.163 19.3 19.3 0 0 0 7.081-1.321 12.58 12.58 0 0 0 3.539 4.125 18.042 18.042 0 0 0 10.991 3.52 20.143 20.143 0 0 0 2.567-.164l7.612 4.024a.967.967 0 0 0 1.06-.029 1.108 1.108 0 0 0 .526-.924l.043-7.1A10.917 10.917 0 0 0 53 102.36a11.131 11.131 0 0 0-4.7-8.817zM15.695 106.2a17.949 17.949 0 0 1-2.63-.194 1.077 1.077 0 0 0-.834.226l-6.148 3.442-.035-5.987v-.066a1.086 1.086 0 0 0-.39-.785 8.91 8.91 0 0 1-3.493-6.8c0-5.606 6.07-10.167 13.531-10.167 5.528 0 10.525 2.59 12.563 6.4a15.578 15.578 0 0 0-1.943 1.273 11.13 11.13 0 0 0-4.7 8.817 9.97 9.97 0 0 0 .366 2.675 17.128 17.128 0 0 1-6.287 1.166zm31.649 2.961a1.087 1.087 0 0 0-.39.785v.059l-.035 5.8-6.168-3.26a1.075 1.075 0 0 0-.815-.21 17.92 17.92 0 0 1-2.63.194c-6.11 0-11.286-3.059-12.961-7.245l-.024-.06a7.826 7.826 0 0 1-.546-2.861c0-5.716 6.165-10.167 13.531-10.167s13.531 4.561 13.531 10.167a8.91 8.91 0 0 1-3.494 6.8z" class="cls-6" data-name="패스 125" transform="translate(0 -83.699)"/>
                <path id="패스_126" d="M290.113 222.2H277.25a1.095 1.095 0 1 0 0 2.19h12.863a1.095 1.095 0 0 0 0-2.19z" class="cls-6" data-name="패스 126" transform="translate(-246.427 -207.178)"/>
                <path id="패스_127" d="M290.113 267.469H277.25a1.095 1.095 0 1 0 0 2.19h12.863a1.095 1.095 0 0 0 0-2.19z" class="cls-6" data-name="패스 127" transform="translate(-246.427 -247.543)"/>
            </g>
        </g>
    </g>
</svg>
