<svg xmlns="http://www.w3.org/2000/svg" width="80" height="52" viewBox="0 0 80 52">
    <defs>
        <style>
            .cls-1{fill:#fff}
        </style>
    </defs>
    <g id="icon">
        <g>
            <path d="M72.9 98.324a27.527 27.527 0 0 0-16.59-5.229 29.444 29.444 0 0 0-10.7 1.962 20.03 20.03 0 0 0-7.847-7.788A28.394 28.394 0 0 0 23.689 83.7 27.526 27.526 0 0 0 7.1 88.928C2.521 92.4 0 97.05 0 102.027a16.119 16.119 0 0 0 5.867 12.091l.064 10.921a1.546 1.546 0 0 0 .81 1.383 1.745 1.745 0 0 0 1.618.015l11.476-6.323a30.859 30.859 0 0 0 3.854.242 29.546 29.546 0 0 0 10.688-1.962 18.773 18.773 0 0 0 5.342 6.129 27.527 27.527 0 0 0 16.591 5.229 30.886 30.886 0 0 0 3.874-.244l11.49 5.978a1.479 1.479 0 0 0 1.6-.044 1.641 1.641 0 0 0 .793-1.373l.064-10.555A16.12 16.12 0 0 0 80 111.424c0-4.978-2.521-9.63-7.1-13.1zm-49.21 18.808a27.517 27.517 0 0 1-3.97-.288 1.645 1.645 0 0 0-1.259.336l-9.28 5.114-.052-8.9v-.1a1.6 1.6 0 0 0-.588-1.166c-3.4-2.786-5.273-6.375-5.273-10.108 0-8.329 9.162-15.1 20.424-15.1 8.344 0 15.887 3.848 18.964 9.51a23.553 23.553 0 0 0-2.933 1.891c-4.578 3.469-7.1 8.122-7.1 13.1a14.6 14.6 0 0 0 .552 3.974 26.219 26.219 0 0 1-9.485 1.737zm47.772 4.4a1.606 1.606 0 0 0-.588 1.166v.088l-.052 8.612-9.31-4.844a1.642 1.642 0 0 0-1.23-.313 27.473 27.473 0 0 1-3.969.288c-9.223 0-17.035-4.545-19.563-10.765-.01-.03-.024-.06-.036-.09a11.467 11.467 0 0 1-.825-4.251c0-8.492 9.306-15.1 20.424-15.1s20.424 6.776 20.424 15.1c-.002 3.733-1.875 7.323-5.275 10.109z" class="cls-1" transform="translate(0 -83.699)"/>
            <path d="M296.966 222.2h-19.179a1.632 1.632 0 1 0 0 3.265h19.179a1.632 1.632 0 1 0 0-3.265z" class="cls-1" transform="translate(-231.065 -199.89)"/>
            <path d="M296.966 267.469h-19.179a1.632 1.632 0 1 0 0 3.265h19.179a1.632 1.632 0 1 0 0-3.265z" class="cls-1" transform="translate(-231.065 -237.872)"/>
        </g>
    </g>
</svg>
